<svg width="89" height="69" viewBox="0 0 89 69" fill="none" xmlns="http://www.w3.org/2000/svg">
<path d="M76.3229 29.9011L74.1096 32.0888L77.0105 32.4321C89.9261 28.8618 84.1527 14.3061 84.1527 14.3061C86.523 27.3919 76.3229 29.9011 76.3229 29.9011ZM11.9927 32.4352L14.8935 32.0919L12.6802 29.9042C12.6802 29.9042 2.4833 27.395 4.85044 14.3092C4.85044 14.3061 -0.922995 28.8649 11.9927 32.4352ZM27.7684 36.4549C28.3021 36.5579 28.4119 36.717 28.4119 37.2226V48.9509C28.4119 49.4564 28.3052 49.5875 27.7684 49.7155V50.0556H32.1636V49.7155C31.5985 49.5844 31.52 49.4564 31.52 48.9509V37.2226C31.52 36.717 31.6267 36.5579 32.1636 36.4549V36.1178H27.7684V36.4549ZM68.3393 46.5634L69.8212 48.5607C81.2801 55.4641 88.0205 41.3234 88.0205 41.3234C80.0306 51.9937 71.2057 46.3293 71.2057 46.3293L68.5968 46.2419C69.6234 44.9218 70.5244 43.5018 71.2904 42.0007L73.5477 43.7172C86.4947 47.1813 89 31.7361 89 31.7361C84.3191 44.1915 74.2541 41.1861 74.2541 41.1861L71.3281 41.9258C72.1161 40.3685 72.7534 38.7238 73.2275 37.0104L75.8301 38.1277C89.2355 38.3586 87.8761 22.7699 87.8761 22.7699C86.388 35.9805 75.8928 35.503 75.8928 35.503L73.2526 36.9168C73.8553 34.6947 74.185 32.3603 74.185 29.9479C74.185 29.2394 74.1536 28.5528 74.1128 27.8725L77.0042 27.4824C88.5982 20.8037 79.3211 8.15796 79.3211 8.15796C84.9282 20.2326 75.6951 25.2041 75.6951 25.2041L74.1128 27.8663C73.9966 25.9719 73.7298 24.1867 73.3185 22.514L75.4753 21.8742C84.9376 14.2499 74.8066 4.19445 74.8066 4.19445C81.5595 14.2499 73.9715 20.0141 73.9715 20.0141L73.1804 22.0053C72.7817 20.5135 72.2793 19.1091 71.6734 17.7952L73.5822 16.5406C79.7387 7.53066 68.3739 1.47929 68.3739 1.47929C76.8284 8.40138 71.799 15.3235 71.799 15.3235L71.6012 17.6392C70.8478 16.0163 69.9436 14.5277 68.9296 13.1732L70.1351 11.7906C73.2683 2.49982 61.938 0 61.938 0C66.8481 2.1534 68.2954 5.27115 68.5968 7.66486C67.6612 7.54002 66.6817 7.45888 65.6426 7.44328L65.6614 7.34341C63.4921 -2.21582 52.4977 1.46681 52.4977 1.46681C61.1343 0.365142 63.2974 6.10442 63.6867 7.46512C63.4638 7.47448 63.2409 7.49633 63.018 7.50881C61.2317 6.25422 59.3323 5.21497 57.3701 4.42539C59.3605 5.25867 61.1155 6.31664 62.6789 7.53378C55.0595 8.11114 47.7069 10.9886 47.5719 11.0479C46.7965 11.4879 45.6914 12.3025 44.5141 13.2294C43.3463 12.3087 42.2506 11.5035 41.4814 11.0635C41.3464 11.0042 33.953 8.10802 26.3085 7.54626C27.8751 6.326 29.6363 5.26179 31.6299 4.42539C29.6646 5.2181 27.7589 6.26047 25.9695 7.5213C25.7528 7.50569 25.5331 7.49009 25.3133 7.48073C25.69 6.15436 27.8311 0.3589 36.5086 1.46681C36.5086 1.46681 25.5111 -2.21582 23.3417 7.34341L23.3606 7.462C22.3528 7.47761 21.3984 7.55563 20.4848 7.67422C20.8019 5.28675 22.2649 2.20333 27.1342 0.0655383C27.1342 0.0655383 15.8039 2.56848 18.9308 11.8624L20.0736 13.167C19.0564 14.5245 18.1491 16.0163 17.3956 17.6392L17.1979 15.3235C17.1979 15.3235 12.1716 8.40138 20.6261 1.47929C20.6261 1.47929 9.25821 7.53066 15.4178 16.5406L17.3266 17.7952C16.7238 19.1091 16.2215 20.5135 15.8196 22.0053L15.0285 20.0141C15.0285 20.0141 7.44361 14.253 14.1934 4.19445C14.1934 4.19445 4.06244 14.2499 13.5247 21.8742L15.6815 22.514C15.2702 24.1867 15.0034 25.9719 14.8872 27.8663L13.3049 25.2041C13.3049 25.2041 4.06872 20.2326 9.6789 8.15796C9.6789 8.15796 0.401849 20.8037 11.9989 27.4824L14.8904 27.8725C14.8496 28.5528 14.8182 29.2394 14.8182 29.9479C14.8182 32.3603 15.1447 34.6947 15.7474 36.9168L13.1072 35.503C13.1072 35.503 2.61201 35.9805 1.12706 22.7699C1.12706 22.7699 -0.232319 38.3586 13.1731 38.1277L15.7757 37.0073C16.2466 38.7206 16.8839 40.3653 17.6719 41.9226L14.746 41.183C14.746 41.183 4.68091 44.1884 0 31.733C0 31.733 2.50527 47.1782 15.4523 43.714L17.7096 41.9976C18.4756 43.4987 19.3766 44.9187 20.4032 46.2388L17.7912 46.3262C17.7912 46.3262 8.96624 51.9906 0.979505 41.3203C0.979505 41.3203 7.71675 55.461 19.1788 48.5576L20.6575 46.5603C21.7249 47.8991 22.9211 49.1287 24.2208 50.2398L21.5146 50.8608C21.5146 50.8608 13.958 58.1075 4.0436 49.1693C4.0436 49.1693 13.4086 61.7527 23.3103 52.7864L24.4343 50.4208C24.5441 50.5113 24.6634 50.5893 24.7733 50.6767C25.3667 51.9313 26.0071 53.0985 26.6821 54.1783L26.0825 54.4717C26.0825 54.4717 20.4064 63.2507 8.68683 56.8061C8.68683 56.8061 20.4817 66.7211 28.0572 56.2287C28.7918 57.2305 29.5516 58.1418 30.327 58.9813C30.3144 58.9907 30.2987 58.9969 30.2862 59.0063L30.3019 59.0344C28.66 61.4749 24.7733 65.0764 16.7332 63.0541C16.7332 63.0541 27.0526 67.9289 32.0851 60.7446C33.0803 61.6684 34.0786 62.4705 35.0519 63.1695C35.0519 63.1758 35.055 63.182 35.055 63.1883C33.6988 65.0233 30.7351 67.4139 24.9303 65.9534C24.9303 65.9534 32.7663 69.6547 36.6059 64.215C36.6561 64.2462 36.7063 64.2774 36.7566 64.3149C37.6325 64.9609 38.6779 65.4103 39.6511 65.8753C39.874 65.9814 40.0969 66.0844 40.323 66.1874C40.3512 66.1999 40.3795 66.2124 40.4077 66.2249C39.0923 67.6324 36.6373 69.0368 32.3488 67.9601C32.3488 67.9601 38.612 70.9187 41.9429 66.8553C42.7655 67.1611 43.6257 67.4326 44.5016 67.5138C45.3743 67.4326 46.2345 67.1736 47.0634 66.8615C50.3943 70.9155 56.6544 67.9601 56.6544 67.9601C52.3659 69.0368 49.914 67.6324 48.5954 66.2249C49.396 65.8691 50.184 65.479 50.9563 65.0639C51.3926 64.8298 51.8039 64.5614 52.2277 64.2962C52.278 64.2587 52.3313 64.2244 52.3816 64.1963C56.2148 69.6672 64.0728 65.9565 64.0728 65.9565C58.2304 67.4264 55.2667 64.9984 53.923 63.1571C53.923 63.1539 53.923 63.1508 53.923 63.1446C54.7707 62.5298 55.6372 61.8463 56.5037 61.063C56.6292 60.9475 56.7611 60.8195 56.8867 60.7009C61.9066 67.9507 72.2699 63.0541 72.2699 63.0541C64.2298 65.0764 60.3432 61.4749 58.7013 59.0344L58.717 59.0063C58.695 58.9907 58.6762 58.9813 58.6573 58.9688C58.6479 58.9564 58.6416 58.947 58.6353 58.9314C59.3919 58.1012 60.1423 57.1681 60.88 56.1445C68.4524 66.7741 80.3132 56.8061 80.3132 56.8061C68.5936 63.2507 62.9175 54.4717 62.9175 54.4717L62.2206 54.1284C62.8422 53.1203 63.4355 52.028 63.9975 50.8515C64.1859 50.7048 64.3868 50.5737 64.5689 50.4208L65.6928 52.7864C75.5946 61.7558 84.9595 49.1693 84.9595 49.1693C75.0452 58.1075 67.4886 50.8608 67.4886 50.8608L64.7824 50.2398C66.0789 49.1287 67.2719 47.8991 68.3393 46.5634ZM68.0003 45.4055L67.9971 42.9869C67.9971 42.9869 67.7868 41.9507 67.2751 40.4995C67.4195 39.7224 67.5482 38.9266 67.6581 38.1058C67.9658 38.8361 68.2609 39.6194 68.5371 40.4777L70.4993 41.2423C69.7992 42.7122 68.9641 44.1041 68.0003 45.4055ZM68.6031 12.7612C68.3111 12.3899 67.9971 12.0497 67.6895 11.697C67.9281 11.4754 68.1416 11.257 68.3393 11.0448C68.3142 11.1228 68.2985 11.1696 68.2985 11.1696L68.6031 12.7612ZM68.0505 13.376L66.3898 12.7644C66.6723 12.5584 66.9329 12.3524 67.1778 12.1464C67.4823 12.549 67.7774 12.9579 68.0505 13.376ZM70.5966 41.0301L70.0786 38.4086C70.0786 38.4086 69.3628 36.6983 68.0003 34.7197C68.0537 33.9894 68.0976 33.2466 68.1227 32.482C68.8793 33.4932 69.6297 34.6791 70.3643 36.071L72.1883 36.4424C71.8021 38.0403 71.2716 39.5726 70.5966 41.0301ZM72.3233 35.8307L71.5322 33.7772C71.5322 33.7772 70.267 31.7923 68.1792 29.8293V28.5997C69.0112 29.3611 69.862 30.2537 70.7379 31.2992L72.8758 31.2805C72.8256 32.844 72.6372 34.3639 72.3233 35.8307ZM72.879 29.5859C72.8978 30.0914 72.8978 30.5939 72.8821 31.0932L71.394 28.815C71.394 28.815 70.132 27.5354 68.1761 26.2216V25.0762C69.1713 25.7597 70.2136 26.5867 71.303 27.5947L72.7408 27.395C72.8099 28.1315 72.8601 28.8618 72.879 29.5859ZM71.9214 22.5108C72.2166 23.7311 72.4457 24.9545 72.6027 26.181L71.6358 25.0481C71.6358 25.0481 70.2481 23.9652 68.1792 22.9197V21.3155C68.9515 21.7493 69.7552 22.258 70.5997 22.8635L71.9214 22.5108ZM71.6609 21.509L70.6092 20.5509C70.6092 20.5509 69.6485 19.9767 68.1792 19.3775V18.204C68.4932 18.3258 68.8165 18.4537 69.1462 18.5941L70.4365 17.9294C70.9231 19.0997 71.3281 20.2981 71.6609 21.509ZM70.1163 17.1741L68.6533 16.3315C68.6533 16.3315 68.4743 16.2722 68.1792 16.1911V13.8941L67.8245 13.9534L68.2295 13.6507C68.9421 14.7804 69.5732 15.957 70.1163 17.1741ZM43.8674 14.9521C44.0903 14.7711 44.3101 14.5901 44.533 14.4122C44.7276 14.2561 44.9191 14.1063 45.1075 13.9534C46.2502 13.0515 47.3114 12.2713 48.0397 11.8562C48.068 11.8499 56.3373 8.6136 64.3271 8.37954C64.6223 8.37017 64.9205 8.35769 65.2125 8.35769C65.3035 8.35769 65.3883 8.36705 65.4825 8.36705C66.7194 8.37954 67.8967 8.4638 68.9798 8.63233C68.895 8.77589 68.782 8.95066 68.6501 9.13791C68.0317 10.0305 66.8858 11.3568 64.9801 12.5646C64.1545 13.0858 63.1875 13.582 62.0605 14.0096C60.946 14.4309 59.6839 14.7867 58.2335 15.027C58.1801 15.0332 57.8285 15.0707 57.3136 15.13H57.3105C57.2351 15.1393 57.1504 15.1487 57.0656 15.1581C57.0531 15.1612 57.0405 15.1612 57.0279 15.1612C56.714 15.1955 56.3561 15.2392 55.9668 15.2829C55.8883 15.2923 55.8036 15.3016 55.7219 15.311C55.6121 15.3235 55.5053 15.336 55.3923 15.3484C55.295 15.3609 55.1945 15.3703 55.094 15.3828C54.9842 15.3953 54.8743 15.4077 54.7613 15.4202C54.6639 15.4327 54.5666 15.4421 54.4693 15.4545C54.2715 15.4764 54.0706 15.5014 53.8697 15.5263C53.8037 15.5357 53.7347 15.5419 53.6656 15.5513C53.518 15.57 53.3705 15.5856 53.2198 15.6044C53.1413 15.6137 53.0597 15.6231 52.9812 15.6356C52.8462 15.6512 52.7144 15.6699 52.5794 15.6855C52.4946 15.698 52.4098 15.7073 52.3282 15.7167C52.1712 15.7354 52.0143 15.7573 51.8604 15.776C51.8196 15.7822 51.7788 15.7854 51.7411 15.7916C51.5465 15.8166 51.3581 15.8415 51.176 15.8665C51.1289 15.8727 51.085 15.879 51.0379 15.8852C50.9092 15.904 50.7836 15.9196 50.6643 15.9383C50.6078 15.9445 50.5576 15.9539 50.5042 15.9601C50.3943 15.9757 50.2907 15.9913 50.1934 16.0069C50.1526 16.0132 50.1118 16.0194 50.0741 16.0257C49.9454 16.0444 49.8229 16.0662 49.7225 16.0818C49.7099 16.0818 49.666 16.085 49.6032 16.0943C49.5875 16.0974 49.5686 16.0974 49.5498 16.1006C49.4901 16.1068 49.4179 16.1162 49.3269 16.1287C49.2986 16.1318 49.2704 16.1349 49.239 16.1411C49.1323 16.1567 49.0098 16.1755 48.8717 16.2004C48.8528 16.2036 48.834 16.2067 48.812 16.2098C48.6394 16.241 48.451 16.2753 48.2406 16.3222C48.2375 16.3222 48.2375 16.3222 48.2344 16.3253C48.0491 16.3658 47.8545 16.4158 47.6504 16.4688C47.6222 16.4751 47.5939 16.4844 47.5688 16.4907C47.4275 16.5281 47.2894 16.5687 47.1418 16.6155C47.0916 16.6311 47.0382 16.6498 46.9849 16.6654C46.9472 16.6779 46.9064 16.6904 46.8687 16.7029C46.6615 16.7716 46.4512 16.8496 46.2377 16.937C46.2283 16.9401 46.222 16.9432 46.2126 16.9463C46.2 16.9526 46.1843 16.9557 46.1718 16.9619C46.0211 17.0243 45.8704 17.0961 45.7197 17.1679C45.7165 17.171 45.7134 17.171 45.7071 17.1741C44.4702 17.7671 43.2992 18.669 42.7906 20.0485C42.7749 20.1046 42.5394 21.0253 41.7169 21.843L40.0341 19.908L48.6205 12.7519C48.7681 12.627 48.812 12.4429 48.7178 12.3337C48.6237 12.2244 48.4259 12.2369 48.2815 12.3586L39.6919 19.5148L39.1991 18.9468C39.5821 18.6066 40.2602 18.0105 41.0796 17.299C41.0921 17.2896 41.1078 17.2771 41.1204 17.2647C41.7106 16.756 42.3699 16.1911 43.0574 15.62C43.1861 15.5107 43.3149 15.4046 43.4467 15.2954C43.5943 15.1768 43.7293 15.0644 43.8674 14.9521ZM65.4856 14.3092C64.8608 14.3935 64.0791 14.4902 63.1342 14.5963C63.4952 14.4434 63.8437 14.2873 64.1702 14.1219C64.5909 14.1688 65.0272 14.228 65.4856 14.3092ZM55.6968 25.8096C55.6968 25.8096 55.634 26.2403 55.0093 26.8645L54.5729 27.2358C54.5729 27.2358 54.3217 27.4231 54.1365 27.2358C54.1365 27.2358 53.4521 26.7989 53.8885 26.5524L55.0124 25.3103C55.0093 25.3134 55.7596 25.0013 55.6968 25.8096ZM56.2588 26.6772C56.2588 26.6772 57.9478 29.0366 59.3857 29.5952C59.3857 29.5952 59.8848 30.029 58.8834 30.9622C58.8834 30.9622 57.8819 32.0794 56.8207 30.7749L54.9434 27.7945L56.2588 26.6772ZM54.4473 24.1961L53.1319 25.7472C53.1319 25.7472 52.6955 25.9968 52.3847 25.6223L51.5685 24.9389L51.4429 24.5051L53.0691 22.7012C53.0691 22.7012 53.4458 22.3922 53.945 22.8885L54.3814 23.3223C54.3814 23.3254 54.8209 23.8216 54.4473 24.1961ZM52.504 21.8367L50.8181 23.6999C50.8181 23.6999 50.3158 24.1337 49.8135 23.6999C49.3143 23.263 49.8135 22.8323 49.8135 22.8323L51.7537 20.785C52.1241 20.7226 52.3156 20.9691 52.3156 20.9691C52.6924 21.3405 52.504 21.8367 52.504 21.8367ZM50.8809 20.4074L49.2515 22.2081C48.5012 22.7043 48.564 22.0209 48.564 22.0209L50.501 19.6615C51.1949 19.4774 50.8809 20.4074 50.8809 20.4074ZM47.3333 21.8555C46.5108 21.0378 46.2754 20.1171 46.2597 20.061C46.0368 19.4555 45.6757 18.9499 45.2456 18.5161C45.6443 18.2477 46.0776 18.023 46.5171 17.8389L49.0161 19.9205L47.3333 21.8555ZM49.3551 19.5273L47.0728 17.6267C47.393 17.5143 47.7069 17.4238 48.0052 17.3458C48.812 18.0418 49.4713 18.6254 49.848 18.9593L49.3551 19.5273ZM34.0504 26.8488C33.4256 26.2278 33.3628 25.794 33.3628 25.794C33.3 24.9857 34.0504 25.2978 34.0504 25.2978L35.1743 26.5399C35.6138 26.7864 34.9263 27.2234 34.9263 27.2234C34.7411 27.4106 34.4899 27.2234 34.4899 27.2234L34.0504 26.8488ZM34.1132 27.7789L32.2358 30.7593C31.1746 32.0607 30.1732 30.9466 30.1732 30.9466C29.1717 30.0134 29.6709 29.5765 29.6709 29.5765C31.1087 29.0179 32.7977 26.6585 32.7977 26.6585L34.1132 27.7789ZM34.6092 24.1774C34.2356 23.806 34.6751 23.3098 34.6751 23.3098L35.1115 22.876C35.6107 22.3798 35.9874 22.6887 35.9874 22.6887L37.6136 24.4926L37.4912 24.9233L36.6749 25.6067C36.3641 25.9781 35.9278 25.7316 35.9278 25.7316L34.6092 24.1774ZM36.5525 21.818C36.5525 21.818 36.3641 21.3218 36.7409 20.9504C36.7409 20.9504 36.9292 20.7039 37.3028 20.7663L39.243 22.8167C39.243 22.8167 39.7422 23.2474 39.243 23.6843C38.7407 24.1181 38.2384 23.6843 38.2384 23.6843L36.5525 21.818ZM38.1756 20.3918C38.1756 20.3918 37.8617 19.4617 38.5523 19.6459L40.4894 22.0053C40.4894 22.0053 40.5522 22.6887 39.8018 22.1925L38.1756 20.3918ZM20.0736 8.65105C21.2352 8.46692 22.5004 8.37642 23.8409 8.37642C24.114 8.37642 24.3872 8.3889 24.6603 8.39826C24.6948 8.39826 24.7325 8.40138 24.767 8.40138C24.8989 8.4045 25.0308 8.40763 25.1658 8.41075C33.0175 8.74468 40.9885 11.8687 41.0168 11.8749C41.7075 12.2681 42.6964 12.9922 43.7669 13.8317C43.5566 14.0033 43.3463 14.1719 43.1359 14.3466L40.7656 12.3743C40.6181 12.2525 40.4234 12.2401 40.3293 12.3493C40.2382 12.4585 40.279 12.6458 40.4266 12.7675L42.7278 14.6837C42.3573 14.9895 41.9963 15.2923 41.6447 15.5919C37.8208 15.517 34.4491 15.3422 31.6142 15.1362C31.1652 15.0863 30.8701 15.052 30.8199 15.0457C29.3538 14.8023 28.076 14.4403 26.9521 14.0127C25.8282 13.5851 24.8644 13.0889 24.045 12.5677C23.4202 12.1714 22.8771 11.7626 22.4093 11.36C22.2555 11.2258 22.1048 11.0947 21.9635 10.9636C21.2634 10.2989 20.7643 9.68094 20.4189 9.18472C20.2808 8.98186 20.1646 8.80085 20.0736 8.65105ZM25.9412 14.6213C24.9366 14.512 24.1015 14.4091 23.4422 14.3217C23.9351 14.2343 24.4029 14.1688 24.8518 14.1219C25.194 14.2936 25.5613 14.459 25.9412 14.6213ZM20.7266 11.0697C20.9118 11.2695 21.1127 11.4723 21.3325 11.6783C21.0562 11.9873 20.7768 12.29 20.5162 12.6177L20.7831 11.2414C20.78 11.2414 20.758 11.179 20.7266 11.0697ZM21.8379 12.1277C22.0828 12.3368 22.3497 12.5459 22.6322 12.7581L20.9495 13.376C21.232 12.9485 21.5303 12.5365 21.8379 12.1277ZM20.78 13.6507L21.232 13.9909L20.6575 13.8941V16.241C20.4597 16.2972 20.353 16.3346 20.353 16.3346L18.89 17.1773C19.43 15.957 20.0642 14.7804 20.78 13.6507ZM18.5667 17.9294L19.8601 18.5941C20.1364 18.4756 20.3907 18.385 20.6544 18.2852V19.4493C19.2824 20.0235 18.3908 20.5541 18.3908 20.5541L17.3391 21.5122C17.6751 20.2981 18.0832 19.0997 18.5667 17.9294ZM17.0848 22.5108L18.4034 22.8604C19.1914 22.2986 19.9354 21.8367 20.6575 21.4217V22.9977C18.6797 24.0151 17.3642 25.0419 17.3642 25.0419L16.4004 26.1747C16.5574 24.9545 16.7866 23.7311 17.0848 22.5108ZM16.1242 29.5859C16.1461 28.8618 16.1932 28.1315 16.2623 27.3981L17.7002 27.5979C18.7268 26.646 19.7125 25.8564 20.6575 25.1979V26.3339C18.799 27.6072 17.606 28.815 17.606 28.815L16.121 31.0932C16.1085 30.5939 16.1085 30.0914 16.1242 29.5859ZM16.1304 31.2836L18.2684 31.3023C19.0847 30.3255 19.8789 29.4891 20.6575 28.7619V29.9884C18.6703 31.8984 17.4678 33.7803 17.4678 33.7803L16.6798 35.8338C16.3659 34.3639 16.1775 32.844 16.1304 31.2836ZM16.818 36.4424L18.6389 36.071C19.3201 34.779 20.0139 33.6711 20.714 32.7067C20.7423 33.4745 20.7925 34.2172 20.849 34.9506C19.5932 36.8294 18.9277 38.4086 18.9277 38.4086L18.4097 41.0301C17.7347 39.5758 17.2041 38.0403 16.818 36.4424ZM21.006 45.3775C20.0453 44.0854 19.1977 42.706 18.507 41.2361L20.4692 40.4714C20.7046 39.7412 20.9558 39.0702 21.2132 38.4335C21.3294 39.2574 21.4644 40.0564 21.615 40.8335C21.1881 42.1037 21.006 42.9806 21.006 42.9806V45.3775ZM21.276 45.752L22.6008 44.9156C22.9744 46.2045 23.3951 47.4185 23.8566 48.567C22.9336 47.69 22.0546 46.7631 21.276 45.752ZM46.4637 65.3073C46.1623 65.4072 45.7636 65.5414 45.4026 65.66C45.3492 65.6756 45.299 65.6912 45.2488 65.7068H45.2645C44.9003 65.8254 44.5926 65.9253 44.5016 65.9502C44.0777 65.8379 43.6633 65.6818 43.2489 65.5445C42.4829 65.2917 41.7357 65.0826 40.9948 64.7643C40.5365 64.5677 40.0844 64.3555 39.6386 64.1339C38.5712 63.6002 37.5414 62.9948 36.5556 62.33C35.3752 61.5342 34.2544 60.6479 33.209 59.6835C31.9972 58.5694 30.8827 57.3491 29.8781 56.0477C28.7227 54.5528 27.715 52.9518 26.8485 51.2759C25.847 49.3378 25.037 47.3062 24.3997 45.2245C23.6525 42.784 23.1377 40.2748 22.8143 37.7469C22.4941 35.2627 22.356 32.7598 22.356 30.2568C22.356 30.2537 22.356 15.8696 22.356 15.8696C24.6572 16.1973 30.8764 16.9713 39.7516 17.2303C38.9071 17.9669 38.3232 18.4912 38.2447 18.5598C38.2447 18.5598 37.9056 18.8657 37.9087 18.8688C37.8742 18.8844 37.8428 18.8844 37.8114 18.9062L32.4932 24.4957C32.4932 24.4957 31.7272 25.2416 32.0725 25.7347C32.0097 27.5979 29.0084 28.7775 29.0084 28.7775C27.4418 28.7775 28.1922 30.0197 28.1922 30.0197C30.1292 33.6211 34.3204 33.8084 34.3204 33.8084C35.5542 33.6867 34.7442 32.3197 34.7442 32.3197C34.5778 31.4521 35.2779 29.202 35.4537 28.6558C35.6138 28.7869 35.9058 28.8649 36.3673 28.4093L41.6196 23.2536C41.6196 23.2536 41.8801 23.1132 41.9178 22.9197L41.9743 22.8729C43.3368 21.793 43.6853 20.3793 43.6822 20.3699C43.8611 19.8862 44.1562 19.4742 44.5141 19.1153C44.8846 19.4774 45.1922 19.8924 45.3743 20.3855C45.3712 20.3918 45.7197 21.8086 47.0822 22.8885L47.1387 22.9353C47.1795 23.1288 47.437 23.2692 47.437 23.2692L52.6892 28.4249C53.1507 28.8805 53.4458 28.7994 53.6028 28.6714C53.7818 29.2176 54.4787 31.4677 54.3123 32.3353C54.3123 32.3353 53.5023 33.7023 54.7362 33.824C54.7362 33.824 58.9273 33.6367 60.8643 30.0353C60.8643 30.0353 61.6178 28.7931 60.0512 28.7931C60.0512 28.7931 57.0499 27.6135 56.9871 25.7503C57.3325 25.2572 56.5664 24.5113 56.5664 24.5113L51.2482 18.9218C51.2137 18.9 51.1823 18.9 51.1509 18.8813L50.8119 18.5754C50.7334 18.5036 50.1431 17.9731 49.2798 17.221C58.0545 16.9588 64.1953 16.1942 66.4777 15.8665V30.2537C66.4871 55.6576 52.008 63.31 46.4637 65.3073ZM64.8703 48.8603C65.3789 47.6058 65.8466 46.2607 66.2579 44.8251L67.7272 45.7488C66.867 46.8661 65.9094 47.9022 64.8703 48.8603ZM54.8523 42.4376H54.5038V45.649H54.8523C54.9873 45.0966 55.1192 45.0186 55.6278 45.0186H59.1094V46.9098C57.5805 47.4872 56.1928 47.8024 54.8523 47.8024C51.4523 47.8024 49.0412 45.624 49.0412 43.1086C49.0412 40.2436 51.2106 38.1589 54.4505 38.1589C56.9683 38.1589 59.2978 39.3074 59.2978 40.0033C59.2978 40.0564 59.2978 40.0845 59.2726 40.1375L59.5646 40.3248L61.3164 36.9948L61.0213 36.8107C60.7262 36.8637 60.4845 36.9168 60.2961 36.9168C59.5677 36.9168 57.8505 35.812 54.6639 35.812C51.3142 35.812 48.743 37.1664 47.3553 39.2387C47.0037 38.6395 46.5736 38.1183 46.0556 37.6939C44.3917 36.3332 42.3793 36.121 39.6951 36.121H32.7695V36.4642C33.3032 36.5704 33.4382 36.7326 33.4382 37.2382V48.9384C33.4382 49.4408 33.3032 49.5781 32.7695 49.7092V50.0525H39.6951C42.3793 50.0525 44.3885 49.8403 46.0556 48.4858C46.5799 48.0552 47.0225 47.5246 47.371 46.9129C48.7461 48.9571 51.2357 50.3116 54.3437 50.3116C56.6732 50.3116 59.6211 49.5657 62.3085 48.0146V47.6713C61.7748 47.5652 61.6429 47.4091 61.6429 46.9098V44.2227C61.6429 43.7172 61.7779 43.533 62.3085 43.4269V43.1086H55.6309C55.1192 43.1117 54.959 42.9744 54.8523 42.4376ZM40.2571 47.715H36.5023V38.4148H40.2571C43.5315 38.4148 45.1671 40.0345 45.1671 43.0524C45.1703 46.0734 43.5315 47.715 40.2571 47.715Z" fill="#003667"/>
</svg>
