<svg width="75" height="59" viewBox="0 0 75 59" fill="none" xmlns="http://www.w3.org/2000/svg">
<path d="M64.3171 25.7963L62.4519 27.6353L64.8965 27.9239C75.7804 24.9228 70.9152 12.6875 70.9152 12.6875C72.9126 23.6872 64.3171 25.7963 64.3171 25.7963ZM10.1062 27.9265L12.5507 27.6379L10.6856 25.799C10.6856 25.799 2.09267 23.6898 4.08745 12.6901C4.08745 12.6875 -0.777805 24.9254 10.1062 27.9265ZM23.4003 31.3053C23.85 31.3919 23.9426 31.5257 23.9426 31.9507V41.8092C23.9426 42.2342 23.8527 42.3444 23.4003 42.4519V42.7379H27.1041V42.4519C26.6279 42.3417 26.5618 42.2342 26.5618 41.8092V31.9507C26.5618 31.5257 26.6517 31.3919 27.1041 31.3053V31.022H23.4003V31.3053ZM57.5893 39.8023L58.8381 41.4813C68.4945 47.2841 74.1746 35.3978 74.1746 35.3978C67.4415 44.367 60.0048 39.6056 60.0048 39.6056L57.8063 39.5321C58.6714 38.4225 59.4307 37.2288 60.0762 35.967L61.9784 37.4099C72.8888 40.3218 75 27.3389 75 27.3389C71.0554 37.8086 62.5736 35.2823 62.5736 35.2823L60.1079 35.9041C60.772 34.595 61.309 33.2125 61.7085 31.7723L63.9017 32.7115C75.1984 32.9056 74.0529 19.802 74.0529 19.802C72.7989 30.9066 63.9546 30.5052 63.9546 30.5052L61.7297 31.6936C62.2376 29.8258 62.5154 27.8635 62.5154 25.8357C62.5154 25.2402 62.489 24.663 62.4546 24.0912L64.8912 23.7632C74.6614 18.1493 66.8436 7.51952 66.8436 7.51952C71.5687 17.6692 63.788 21.8482 63.788 21.8482L62.4546 24.0859C62.3567 22.4935 62.1318 20.993 61.7853 19.5869L63.6028 19.0491C71.5766 12.6403 63.0393 4.18788 63.0393 4.18788C68.7299 12.6403 62.3355 17.4856 62.3355 17.4856L61.6688 19.1593C61.3329 17.9053 60.9096 16.7248 60.399 15.6204L62.0075 14.5658C67.1955 6.99223 57.6184 1.90557 57.6184 1.90557C64.743 7.72414 60.5048 13.5427 60.5048 13.5427L60.3381 15.4892C59.7032 14.1251 58.9412 12.8738 58.0867 11.7352L59.1026 10.5731C61.7429 2.7634 52.195 0.662109 52.195 0.662109C56.3327 2.47221 57.5523 5.09293 57.8063 7.10503C57.0179 7.0001 56.1925 6.93189 55.3168 6.91878L55.3326 6.83483C53.5045 -1.20046 44.2397 1.89508 44.2397 1.89508C51.5177 0.96904 53.3405 5.79336 53.6686 6.93714C53.4807 6.94501 53.2929 6.96337 53.105 6.97387C51.5997 5.91928 49.9991 5.04571 48.3456 4.38201C50.0229 5.08244 51.5018 5.97175 52.8193 6.99485C46.3985 7.48017 40.2025 9.89889 40.0887 9.94873C39.4353 10.3186 38.504 11.0033 37.5119 11.7824C36.5277 11.0086 35.6044 10.3317 34.9563 9.96185C34.8425 9.91201 28.6121 7.47755 22.1701 7.00535C23.4902 5.97962 24.9744 5.08506 26.6544 4.38201C24.9982 5.04833 23.3924 5.92453 21.8844 6.98436C21.7018 6.97124 21.5166 6.95813 21.3314 6.95026C21.6489 5.83534 23.4532 0.963793 30.7656 1.89508C30.7656 1.89508 21.4981 -1.20046 19.67 6.83483L19.6859 6.93452C18.8366 6.94763 18.0324 7.01322 17.2625 7.1129C17.5297 5.10605 18.7626 2.51419 22.8659 0.7172C22.8659 0.7172 13.3179 2.82112 15.9529 10.6334L16.9159 11.73C16.0588 12.8711 15.2942 14.1251 14.6592 15.4892L14.4926 13.5427C14.4926 13.5427 10.257 7.72414 17.3816 1.90557C17.3816 1.90557 7.80186 6.99223 12.9925 14.5658L14.601 15.6204C14.0931 16.7248 13.6698 17.9053 13.3312 19.1593L12.6645 17.4856C12.6645 17.4856 6.27271 12.6429 11.9607 4.18788C11.9607 4.18788 3.4234 12.6403 11.3972 19.0491L13.2148 19.5869C12.8682 20.993 12.6433 22.4935 12.5454 24.0859L11.212 21.8482C11.212 21.8482 3.42869 17.6692 8.15637 7.51952C8.15637 7.51952 0.338637 18.1493 10.1115 23.7632L12.5481 24.0912C12.5137 24.663 12.4872 25.2402 12.4872 25.8357C12.4872 27.8635 12.7624 29.8258 13.2703 31.6936L11.0454 30.5052C11.0454 30.5052 2.20114 30.9066 0.949769 19.802C0.949769 19.802 -0.195775 32.9056 11.1009 32.7115L13.2941 31.7697C13.691 33.2099 14.228 34.5924 14.8921 35.9014L12.4264 35.2797C12.4264 35.2797 3.94458 37.806 0 27.3362C0 27.3362 2.11119 40.3191 13.0216 37.4072L14.9238 35.9644C15.5693 37.2262 16.3286 38.4198 17.1937 39.5295L14.9926 39.603C14.9926 39.603 7.55582 44.3643 0.825426 35.3951C0.825426 35.3951 6.50288 47.2815 16.1619 41.4787L17.408 39.7997C18.3075 40.9251 19.3155 41.9587 20.4108 42.8926L18.1303 43.4147C18.1303 43.4147 11.7623 49.5061 3.40753 41.9928C3.40753 41.9928 11.2993 52.5701 19.6436 45.0333L20.5907 43.0448C20.6833 43.1209 20.7838 43.1865 20.8764 43.2599C21.3764 44.3145 21.9161 45.2956 22.4849 46.2033L21.9796 46.4499C21.9796 46.4499 17.1964 53.8293 7.32036 48.4121C7.32036 48.4121 17.2599 56.7465 23.6437 47.9268C24.2628 48.7689 24.903 49.5349 25.5565 50.2406C25.5459 50.2485 25.5326 50.2537 25.5221 50.2616L25.5353 50.2852C24.1516 52.3367 20.8764 55.364 14.101 53.6641C14.101 53.6641 22.7971 57.7617 27.038 51.7228C27.8766 52.4993 28.7179 53.1735 29.5381 53.7611C29.5381 53.7664 29.5407 53.7716 29.5407 53.7769C28.3978 55.3194 25.9004 57.3289 21.0087 56.1012C21.0087 56.1012 27.6121 59.2124 30.8476 54.64C30.89 54.6662 30.9323 54.6924 30.9746 54.7239C31.7128 55.2669 32.5937 55.6447 33.4139 56.0356C33.6017 56.1248 33.7896 56.2113 33.98 56.2979C34.0038 56.3084 34.0277 56.3189 34.0515 56.3294C32.943 57.5125 30.8741 58.693 27.2602 57.788C27.2602 57.788 32.5382 60.2749 35.3452 56.8593C36.0383 57.1164 36.7632 57.3446 37.5013 57.4128C38.2368 57.3446 38.9617 57.1269 39.6601 56.8646C42.4671 60.2723 47.7424 57.788 47.7424 57.788C44.1285 58.693 42.0623 57.5125 40.9512 56.3294C41.6258 56.0303 42.2899 55.7024 42.9407 55.3535C43.3084 55.1568 43.655 54.9311 44.0121 54.7082C44.0545 54.6767 44.0994 54.6478 44.1418 54.6242C47.372 59.2229 53.994 56.1038 53.994 56.1038C49.0705 57.3394 46.5731 55.2984 45.4408 53.7506C45.4408 53.748 45.4408 53.7454 45.4408 53.7402C46.1551 53.2234 46.8853 52.6488 47.6154 51.9904C47.7213 51.8933 47.8324 51.7858 47.9382 51.6861C52.1685 57.7801 60.9016 53.6641 60.9016 53.6641C54.1262 55.364 50.851 52.3367 49.4674 50.2852L49.4806 50.2616C49.4621 50.2485 49.4462 50.2406 49.4303 50.2301C49.4224 50.2196 49.4171 50.2118 49.4118 50.1986C50.0494 49.5008 50.6817 48.7165 51.3034 47.856C57.6846 56.7911 67.6796 48.4121 67.6796 48.4121C57.8036 53.8293 53.0204 46.4499 53.0204 46.4499L52.4331 46.1613C52.9569 45.314 53.4569 44.3958 53.9305 43.4068C54.0892 43.2835 54.2585 43.1733 54.412 43.0448L55.3591 45.0333C63.7033 52.5728 71.5951 41.9928 71.5951 41.9928C63.2403 49.5061 56.8724 43.4147 56.8724 43.4147L54.5919 42.8926C55.6845 41.9587 56.6898 40.9251 57.5893 39.8023ZM57.3036 38.8291L57.301 36.796C57.301 36.796 57.1237 35.925 56.6925 34.7052C56.8142 34.052 56.9226 33.383 57.0152 32.6931C57.2745 33.307 57.5232 33.9654 57.756 34.6868L59.4095 35.3295C58.8195 36.5651 58.1158 37.7352 57.3036 38.8291ZM57.8116 11.3889C57.5655 11.0768 57.301 10.7908 57.0417 10.4944C57.2428 10.3081 57.4227 10.1245 57.5893 9.94611C57.5682 10.0117 57.5549 10.051 57.5549 10.051L57.8116 11.3889ZM57.3459 11.9057L55.9464 11.3916C56.1845 11.2184 56.4041 11.0453 56.6105 10.8721C56.8671 11.2106 57.1158 11.5542 57.3459 11.9057ZM59.4915 35.1512L59.055 32.9476C59.055 32.9476 58.4518 31.51 57.3036 29.8468C57.3486 29.2329 57.3856 28.6086 57.4068 27.9658C58.0444 28.8158 58.6767 29.8127 59.2957 30.9827L60.8328 31.2949C60.5074 32.638 60.0603 33.9261 59.4915 35.1512ZM60.9466 30.7807L60.2799 29.0545C60.2799 29.0545 59.2137 27.3861 57.4544 25.736V24.7024C58.1555 25.3425 58.8724 26.0928 59.6106 26.9716L61.4122 26.9558C61.3699 28.2701 61.2112 29.5477 60.9466 30.7807ZM61.4149 25.5314C61.4307 25.9564 61.4307 26.3787 61.4175 26.7984L60.1635 24.8834C60.1635 24.8834 59.1 23.8078 57.4518 22.7034V21.7406C58.2904 22.3152 59.1688 23.0103 60.0868 23.8577L61.2985 23.6898C61.3567 24.3089 61.399 24.9228 61.4149 25.5314ZM60.608 19.5843C60.8566 20.61 61.0498 21.6383 61.1821 22.6693L60.3672 21.717C60.3672 21.717 59.1979 20.8067 57.4544 19.9279V18.5795C58.1052 18.9442 58.7825 19.3718 59.4942 19.8807L60.608 19.5843ZM60.3884 18.7422L59.5021 17.9368C59.5021 17.9368 58.6925 17.4541 57.4544 16.9504V15.9641C57.719 16.0664 57.9915 16.1739 58.2693 16.292L59.3566 15.7332C59.7667 16.717 60.1079 17.7243 60.3884 18.7422ZM59.0867 15.0984L57.8539 14.39C57.8539 14.39 57.7031 14.3402 57.4544 14.272V12.3412L57.1555 12.3911L57.4967 12.1366C58.0973 13.0862 58.6291 14.0752 59.0867 15.0984ZM36.9669 13.2305C37.1548 13.0784 37.3399 12.9262 37.5278 12.7767C37.6918 12.6455 37.8532 12.5196 38.0119 12.3911C38.9749 11.6329 39.8691 10.9771 40.4829 10.6282C40.5067 10.6229 47.4752 7.90253 54.2083 7.70578C54.457 7.69791 54.7083 7.68741 54.9543 7.68741C55.031 7.68741 55.1025 7.69528 55.1818 7.69528C56.2242 7.70578 57.2163 7.77661 58.129 7.91827C58.0576 8.03894 57.9624 8.18585 57.8512 8.34325C57.3301 9.09352 56.3644 10.2084 54.7585 11.2237C54.0628 11.6618 53.2479 12.0789 52.2981 12.4383C51.359 12.7924 50.2954 13.0915 49.0732 13.2935C49.0282 13.2987 48.7319 13.3302 48.298 13.3801H48.2954C48.2319 13.3879 48.1604 13.3958 48.089 13.4037C48.0784 13.4063 48.0678 13.4063 48.0573 13.4063C47.7927 13.4352 47.4911 13.4719 47.163 13.5086C47.0969 13.5165 47.0255 13.5243 46.9567 13.5322C46.8641 13.5427 46.7741 13.5532 46.6789 13.5637C46.5969 13.5742 46.5122 13.5821 46.4276 13.5926C46.335 13.603 46.2424 13.6135 46.1471 13.624C46.0651 13.6345 45.9831 13.6424 45.9011 13.6529C45.7344 13.6713 45.5651 13.6922 45.3958 13.7132C45.3402 13.7211 45.282 13.7263 45.2238 13.7342C45.0995 13.75 44.9751 13.7631 44.8481 13.7788C44.782 13.7867 44.7132 13.7945 44.6471 13.805C44.5333 13.8182 44.4222 13.8339 44.3084 13.847C44.237 13.8575 44.1656 13.8654 44.0968 13.8733C43.9645 13.889 43.8322 13.9074 43.7026 13.9231C43.6682 13.9283 43.6338 13.931 43.6021 13.9362C43.438 13.9572 43.2793 13.9782 43.1259 13.9992C43.0862 14.0044 43.0491 14.0097 43.0095 14.0149C42.901 14.0307 42.7952 14.0438 42.6946 14.0595C42.647 14.0648 42.6047 14.0726 42.5597 14.0779C42.4671 14.091 42.3798 14.1041 42.2978 14.1172C42.2634 14.1225 42.229 14.1277 42.1973 14.133C42.0888 14.1487 41.9856 14.1671 41.901 14.1802C41.8904 14.1802 41.8533 14.1828 41.8004 14.1907C41.7872 14.1933 41.7713 14.1933 41.7554 14.1959C41.7052 14.2012 41.6443 14.209 41.5676 14.2195C41.5438 14.2222 41.52 14.2248 41.4935 14.23C41.4036 14.2431 41.3004 14.2589 41.184 14.2799C41.1681 14.2825 41.1522 14.2851 41.1337 14.2877C40.9882 14.314 40.8295 14.3428 40.6522 14.3822C40.6496 14.3822 40.6496 14.3822 40.6469 14.3848C40.4908 14.4189 40.3268 14.4609 40.1549 14.5055C40.131 14.5107 40.1072 14.5186 40.0861 14.5238C39.967 14.5553 39.8506 14.5894 39.7263 14.6288C39.6839 14.6419 39.639 14.6576 39.594 14.6707C39.5622 14.6812 39.5279 14.6917 39.4961 14.7022C39.3215 14.7599 39.1442 14.8255 38.9643 14.899C38.9564 14.9016 38.9511 14.9042 38.9432 14.9068C38.9326 14.9121 38.9194 14.9147 38.9088 14.92C38.7818 14.9724 38.6548 15.0328 38.5278 15.0931C38.5252 15.0957 38.5225 15.0957 38.5172 15.0984C37.4749 15.5968 36.4881 16.3549 36.0595 17.5144C36.0462 17.5617 35.8478 18.3356 35.1547 19.0229L33.7366 17.3964L40.9723 11.3811C41.0967 11.2761 41.1337 11.1214 41.0544 11.0295C40.975 10.9377 40.8083 10.9482 40.6866 11.0505L33.4483 17.0659L33.0329 16.5884C33.3557 16.3025 33.9271 15.8014 34.6176 15.2033C34.6282 15.1954 34.6414 15.1849 34.652 15.1744C35.1494 14.7468 35.705 14.272 36.2844 13.7919C36.3928 13.7001 36.5013 13.6109 36.6124 13.5191C36.7367 13.4194 36.8505 13.325 36.9669 13.2305ZM55.1845 12.6901C54.658 12.761 53.9993 12.8423 53.2029 12.9315C53.5072 12.8029 53.8008 12.6718 54.076 12.5327C54.4305 12.5721 54.7982 12.6219 55.1845 12.6901ZM46.9355 22.3571C46.9355 22.3571 46.8826 22.7192 46.3561 23.2438L45.9884 23.556C45.9884 23.556 45.7767 23.7134 45.6207 23.556C45.6207 23.556 45.0439 23.1887 45.4117 22.9815L46.3588 21.9374C46.3561 21.94 46.9884 21.6777 46.9355 22.3571ZM47.4091 23.0864C47.4091 23.0864 48.8324 25.0697 50.0441 25.5392C50.0441 25.5392 50.4647 25.9039 49.6208 26.6883C49.6208 26.6883 48.7769 27.6274 47.8826 26.5309L46.3006 24.0256L47.4091 23.0864ZM45.8826 21.0009L44.7741 22.3047C44.7741 22.3047 44.4063 22.5145 44.1444 22.1997L43.4566 21.6252L43.3507 21.2606L44.7212 19.7443C44.7212 19.7443 45.0386 19.4846 45.4593 19.9017L45.827 20.2663C45.827 20.269 46.1974 20.6861 45.8826 21.0009ZM44.2449 19.0176L42.8243 20.5838C42.8243 20.5838 42.401 20.9484 41.9777 20.5838C41.557 20.2165 41.9777 19.8545 41.9777 19.8545L43.6127 18.1336C43.9248 18.0811 44.0862 18.2883 44.0862 18.2883C44.4037 18.6005 44.2449 19.0176 44.2449 19.0176ZM42.8772 17.8161L41.5041 19.3298C40.8718 19.7469 40.9247 19.1724 40.9247 19.1724L42.5571 17.1892C43.1417 17.0344 42.8772 17.8161 42.8772 17.8161ZM39.8877 19.0334C39.1945 18.346 38.9961 17.5722 38.9829 17.5249C38.795 17.016 38.4908 16.591 38.1283 16.2264C38.4643 16.0008 38.8294 15.8119 39.1998 15.6571L41.3057 17.4069L39.8877 19.0334ZM41.5914 17.0763L39.6681 15.4787C39.9379 15.3843 40.2025 15.3082 40.4538 15.2426C41.1337 15.8276 41.6893 16.3182 42.0068 16.5989L41.5914 17.0763ZM28.6941 23.2307C28.1677 22.7087 28.1147 22.344 28.1147 22.344C28.0618 21.6646 28.6941 21.9269 28.6941 21.9269L29.6413 22.971C30.0116 23.1782 29.4323 23.5455 29.4323 23.5455C29.2762 23.7029 29.0645 23.5455 29.0645 23.5455L28.6941 23.2307ZM28.747 24.0125L27.165 26.5177C26.2708 27.6117 25.4268 26.6752 25.4268 26.6752C24.5829 25.8908 25.0035 25.5235 25.0035 25.5235C26.2152 25.0539 27.6385 23.0707 27.6385 23.0707L28.747 24.0125ZM29.165 20.9851C28.8502 20.6729 29.2206 20.2558 29.2206 20.2558L29.5883 19.8912C30.009 19.4741 30.3265 19.7338 30.3265 19.7338L31.6969 21.2501L31.5937 21.6121L30.9059 22.1866C30.6439 22.4988 30.2762 22.2915 30.2762 22.2915L29.165 20.9851ZM30.8027 19.0019C30.8027 19.0019 30.6439 18.5848 30.9614 18.2726C30.9614 18.2726 31.1201 18.0653 31.435 18.1178L33.07 19.8414C33.07 19.8414 33.4906 20.2034 33.07 20.5706C32.6467 20.9353 32.2234 20.5706 32.2234 20.5706L30.8027 19.0019ZM32.1704 17.803C32.1704 17.803 31.9059 17.0213 32.4879 17.176L34.1203 19.1593C34.1203 19.1593 34.1732 19.7338 33.5409 19.3167L32.1704 17.803ZM16.9159 7.93401C17.8948 7.77923 18.961 7.70315 20.0907 7.70315C20.3208 7.70315 20.551 7.71365 20.7812 7.72152C20.8103 7.72152 20.842 7.72414 20.8711 7.72414C20.9822 7.72676 21.0933 7.72939 21.2071 7.73201C27.8237 8.01271 34.5409 10.6387 34.5647 10.6439C35.1467 10.9745 35.9801 11.5831 36.8823 12.2888C36.705 12.433 36.5277 12.5747 36.3505 12.7216L34.3531 11.0637C34.2287 10.9613 34.0647 10.9508 33.9853 11.0427C33.9086 11.1345 33.943 11.2919 34.0673 11.3942L36.0066 13.0049C35.6944 13.262 35.3901 13.5165 35.0938 13.7683C31.8715 13.7054 29.0301 13.5584 26.6412 13.3853C26.2628 13.3433 26.0141 13.3145 25.9718 13.3092C24.7363 13.1046 23.6596 12.8003 22.7124 12.4409C21.7653 12.0815 20.9531 11.6644 20.2626 11.2263C19.7361 10.8931 19.2785 10.5495 18.8843 10.2111C18.7546 10.0983 18.6276 9.98808 18.5086 9.8779C17.9186 9.31913 17.498 8.79971 17.207 8.3826C17.0905 8.21208 16.9927 8.05993 16.9159 7.93401ZM21.8606 12.9525C21.014 12.8606 20.3102 12.7741 19.7547 12.7006C20.17 12.6272 20.5642 12.5721 20.9425 12.5327C21.2309 12.677 21.5404 12.816 21.8606 12.9525ZM17.4662 9.9671C17.6223 10.135 17.7916 10.3055 17.9768 10.4786C17.744 10.7384 17.5086 10.9928 17.289 11.2683L17.5138 10.1114C17.5112 10.1114 17.4927 10.0589 17.4662 9.9671ZM18.4028 10.8564C18.6091 11.0322 18.834 11.2079 19.0721 11.3863L17.6541 11.9057C17.8922 11.5463 18.1435 11.2001 18.4028 10.8564ZM17.5112 12.1366L17.8922 12.4225L17.408 12.3412V14.314C17.2413 14.3612 17.1514 14.3927 17.1514 14.3927L15.9186 15.101C16.3736 14.0752 16.908 13.0862 17.5112 12.1366ZM15.6461 15.7332L16.736 16.292C16.9689 16.1923 17.1831 16.1162 17.4054 16.0323V17.0108C16.2492 17.4935 15.4979 17.9394 15.4979 17.9394L14.6116 18.7448C14.8947 17.7243 15.2386 16.717 15.6461 15.7332ZM14.3973 19.5843L15.5085 19.8781C16.1725 19.4059 16.7995 19.0176 17.408 18.6687V19.9935C15.7413 20.8487 14.6328 21.7118 14.6328 21.7118L13.8206 22.6641C13.9529 21.6383 14.146 20.61 14.3973 19.5843ZM13.5878 25.5314C13.6063 24.9228 13.646 24.3089 13.7042 23.6924L14.9159 23.8603C15.781 23.0602 16.6117 22.3965 17.408 21.843V22.7979C15.8418 23.8682 14.8365 24.8834 14.8365 24.8834L13.5851 26.7984C13.5746 26.3787 13.5746 25.9564 13.5878 25.5314ZM13.5931 26.9585L15.3947 26.9742C16.0826 26.1531 16.7519 25.4501 17.408 24.8388V25.8698C15.7334 27.4753 14.7201 29.0571 14.7201 29.0571L14.0561 30.7833C13.7915 29.5477 13.6328 28.2701 13.5931 26.9585ZM14.1725 31.2949L15.7069 30.9827C16.281 29.8966 16.8657 28.9653 17.4556 28.1547C17.4795 28.8001 17.5218 29.4244 17.5694 30.0409C16.5112 31.6201 15.9503 32.9476 15.9503 32.9476L15.5138 35.1512C14.945 33.9287 14.4979 32.638 14.1725 31.2949ZM17.7017 38.8055C16.8921 37.7194 16.1778 36.5599 15.5958 35.3243L17.2493 34.6816C17.4477 34.0677 17.6594 33.5037 17.8763 32.9685C17.9742 33.6611 18.0879 34.3327 18.2149 34.9859C17.8551 36.0536 17.7017 36.7908 17.7017 36.7908V38.8055ZM17.9292 39.1203L19.0456 38.4172C19.3605 39.5007 19.715 40.5211 20.1039 41.4865C19.3261 40.7494 18.5853 39.9702 17.9292 39.1203ZM39.1548 55.5581C38.9008 55.6421 38.5649 55.7549 38.2606 55.8546C38.2156 55.8677 38.1733 55.8808 38.131 55.8939H38.1442C37.8373 55.9936 37.578 56.0775 37.5013 56.0985C37.1442 56.0041 36.795 55.8729 36.4457 55.7575C35.8002 55.545 35.1706 55.3692 34.5462 55.1017C34.1599 54.9364 33.779 54.758 33.4033 54.5718C32.5038 54.1232 31.636 53.6142 30.8053 53.0555C29.8106 52.3865 28.8661 51.6415 27.9851 50.8309C26.9639 49.8943 26.0247 48.8686 25.1781 47.7747C24.2046 46.5181 23.3553 45.1723 22.6251 43.7636C21.7812 42.1345 21.0986 40.4267 20.5616 38.6769C19.9319 36.6255 19.498 34.5163 19.2255 32.3914C18.9557 30.3032 18.8393 28.1993 18.8393 26.0954C18.8393 26.0928 18.8393 14.0018 18.8393 14.0018C20.7785 14.2772 26.0194 14.9278 33.4985 15.1456C32.7869 15.7647 32.2948 16.2054 32.2286 16.2631C32.2286 16.2631 31.9429 16.5202 31.9456 16.5228C31.9165 16.5359 31.89 16.5359 31.8636 16.5543L27.3819 21.2527C27.3819 21.2527 26.7364 21.8797 27.0274 22.2942C26.9745 23.8603 24.4453 24.8519 24.4453 24.8519C23.1252 24.8519 23.7575 25.896 23.7575 25.896C25.3898 28.9234 28.9217 29.0808 28.9217 29.0808C29.9614 28.9784 29.2788 27.8294 29.2788 27.8294C29.1386 27.1001 29.7286 25.2087 29.8767 24.7496C30.0116 24.8598 30.2577 24.9254 30.6466 24.5424L35.0727 20.2086C35.0727 20.2086 35.2923 20.0906 35.324 19.9279L35.3716 19.8886C36.5198 18.9809 36.8135 17.7925 36.8108 17.7847C36.9616 17.378 37.2103 17.0318 37.5119 16.7301C37.8241 17.0344 38.0834 17.3833 38.2368 17.7978C38.2342 17.803 38.5278 18.994 39.676 19.9017L39.7236 19.941C39.758 20.1037 39.975 20.2217 39.975 20.2217L44.401 24.5555C44.7899 24.9385 45.0386 24.8703 45.1709 24.7627C45.3217 25.2218 45.909 27.1132 45.7688 27.8425C45.7688 27.8425 45.0862 28.9916 46.126 29.0939C46.126 29.0939 49.6578 28.9365 51.2902 25.9091C51.2902 25.9091 51.9251 24.865 50.605 24.865C50.605 24.865 48.0758 23.8734 48.0229 22.3073C48.3139 21.8928 47.6684 21.2658 47.6684 21.2658L43.1867 16.5674C43.1576 16.5491 43.1312 16.5491 43.1047 16.5333L42.819 16.2762C42.7528 16.2159 42.2555 15.7699 41.5279 15.1377C48.9224 14.9173 54.0971 14.2746 56.0205 13.9992V26.0928C56.0284 47.4468 43.8269 53.8792 39.1548 55.5581ZM54.666 41.7331C55.0945 40.6785 55.4887 39.5479 55.8353 38.3411L57.0734 39.1177C56.3486 40.0568 55.5416 40.9278 54.666 41.7331ZM46.2239 36.3343H45.9302V39.0337H46.2239C46.3376 38.5694 46.4487 38.5038 46.8773 38.5038H49.8113V40.0935C48.5229 40.5789 47.3535 40.8438 46.2239 40.8438C43.3587 40.8438 41.3269 39.0127 41.3269 36.8983C41.3269 34.4901 43.155 32.7377 45.8852 32.7377C48.007 32.7377 49.97 33.7031 49.97 34.2881C49.97 34.3327 49.97 34.3563 49.9489 34.4009L50.1949 34.5583L51.6711 31.7592L51.4225 31.6044C51.1738 31.649 50.9701 31.6936 50.8113 31.6936C50.1975 31.6936 48.7504 30.7649 46.0651 30.7649C43.2423 30.7649 41.0755 31.9035 39.9062 33.6454C39.6099 33.1417 39.2474 32.7036 38.8109 32.3468C37.4087 31.203 35.7129 31.0246 33.4509 31.0246H27.6147V31.3132C28.0645 31.4024 28.1782 31.5388 28.1782 31.9638V41.7987C28.1782 42.2211 28.0645 42.3365 27.6147 42.4467V42.7352H33.4509C35.7129 42.7352 37.4061 42.5569 38.8109 41.4183C39.2527 41.0563 39.6257 40.6103 39.9194 40.0962C41.0782 41.8144 43.1761 42.953 45.7953 42.953C47.7583 42.953 50.2425 42.326 52.5071 41.0222V40.7336C52.0574 40.6444 51.9463 40.5133 51.9463 40.0935V37.8348C51.9463 37.4099 52.06 37.2551 52.5071 37.1659V36.8983H46.88C46.4487 36.9009 46.3138 36.7855 46.2239 36.3343ZM33.9245 40.7704H30.7603V32.9528H33.9245C36.6838 32.9528 38.0622 34.3143 38.0622 36.8511C38.0648 39.3905 36.6838 40.7704 33.9245 40.7704Z" fill="#FFFEFC"/>
</svg>
