<svg width="89" height="79" viewBox="0 0 89 79" fill="none" xmlns="http://www.w3.org/2000/svg">
<path d="M11.9887 32.9812L14.8898 32.6314L12.677 30.4056C12.677 30.4056 2.47912 27.8553 4.84522 14.5488C4.84522 14.5488 -0.929371 29.351 11.9887 32.9812Z" fill="#FFFEFC"/>
<path d="M76.9012 33.4324L74.0001 33.0826L76.2129 30.8568C76.2129 30.8568 86.4108 28.3065 84.0447 15C84.0447 15 89.8193 29.8022 76.9012 33.4324Z" fill="white"/>
<path d="M27.7651 37.0703C28.3001 37.1742 28.4082 37.3364 28.4082 37.8511V49.7785C28.4082 50.2931 28.3001 50.4249 27.7651 50.5568V50.9015H32.1583V50.5568C31.5931 50.4249 31.5152 50.2931 31.5152 49.7785V37.8511C31.5152 37.3364 31.6232 37.1742 32.1583 37.0703V36.728H27.7651V37.0703Z" fill="#FFFEFC"/>
<path d="M40.2539 48.5179H36.4988V39.0596H40.2539C43.5293 39.0596 45.167 40.7048 45.167 43.7748C45.167 46.8498 43.5293 48.5179 40.2539 48.5179ZM54.8524 43.1537H54.5033V46.4189H54.8524C54.9855 45.8561 55.1212 45.7775 55.6285 45.7775H59.1099V47.6991C57.5827 48.2847 56.1937 48.6066 54.8524 48.6066C51.4514 48.6066 49.0401 46.391 49.0401 43.8356C49.0401 40.9229 51.2078 38.801 54.4505 38.801C56.9673 38.801 59.2983 39.9697 59.2983 40.677C59.2983 40.7327 59.2983 40.7606 59.2731 40.8139L59.567 41.004L61.3177 37.6197L61.0213 37.4346C60.725 37.4879 60.4838 37.5411 60.2954 37.5411C59.567 37.5411 57.849 36.4155 54.664 36.4155C51.3133 36.4155 48.7437 37.7921 47.3547 39.9012C47.0031 39.2928 46.5711 38.7605 46.0536 38.3295C44.3883 36.9479 42.3789 36.7324 39.6938 36.7324H32.7688V37.0822C33.3013 37.1913 33.4369 37.3535 33.4369 37.8681V49.7651C33.4369 50.2772 33.3013 50.4141 32.7688 50.551V50.9008H39.6938C42.3789 50.9008 44.3883 50.6854 46.0536 49.3063C46.5786 48.8677 47.0207 48.3278 47.3698 47.7067C48.7437 49.7854 51.2354 51.1645 54.3425 51.1645C56.6709 51.1645 59.6223 50.404 62.3074 48.8272V48.4773C61.7749 48.3709 61.6418 48.2112 61.6418 47.7041V44.9713C61.6418 44.4567 61.7749 44.2691 62.3074 44.1601V43.8382H55.626C55.1212 43.8382 54.9579 43.6987 54.8524 43.1537Z" fill="#FFFEFC"/>
<path d="M50.6018 70.8346H49.0998V72.6091H50.6018C51.2147 72.6091 51.5463 72.3429 51.5463 71.7092C51.5463 71.0982 51.2172 70.8346 50.6018 70.8346ZM72.8839 31.6172L71.3944 29.3027C71.3944 29.3027 70.1309 28.0023 68.1743 26.6663V25.5001C69.1689 26.1948 70.2113 27.0364 71.3014 28.0606L72.7407 27.8578C72.8085 28.6056 72.8562 29.3484 72.8788 30.0835C72.8964 30.6007 72.8964 31.1102 72.8839 31.6172ZM72.6025 26.6206L71.6355 25.4672C71.6355 25.4672 70.2465 24.3644 68.1768 23.3023V21.6697C68.9479 22.1108 69.7517 22.6279 70.5981 23.2439L71.9218 22.889C72.2157 24.1312 72.4443 25.3785 72.6025 26.6206ZM71.6606 21.8699L70.6082 20.8965C70.6082 20.8965 69.6462 20.3134 68.1768 19.7025V18.511C68.4907 18.6327 68.8122 18.7645 69.1438 18.9065L70.4349 18.2296C70.9221 19.4211 71.329 20.6404 71.6606 21.8699ZM70.1133 17.464L68.6515 16.6072C68.6515 16.6072 68.4706 16.5489 68.1768 16.4627V14.1253L67.8201 14.1862L68.2245 13.8769C68.9403 15.0304 69.5733 16.2269 70.1133 17.464ZM68.654 9.29352C68.0361 10.2011 66.8882 11.5523 64.9843 12.7767C64.1579 13.3065 63.1934 13.811 62.0656 14.2445C60.9504 14.6729 59.6895 15.0354 58.2402 15.2788C58.1849 15.2839 57.8358 15.3244 57.3183 15.3827H57.3158C57.2405 15.3903 57.1551 15.4005 57.0722 15.4106C57.0596 15.4132 57.0471 15.4132 57.0345 15.4157C56.7205 15.4512 56.3638 15.4943 55.972 15.5399C55.8916 15.55 55.8113 15.5602 55.7284 15.5678C55.6204 15.5805 55.5098 15.5931 55.3968 15.6058C55.2989 15.6185 55.1984 15.6286 55.1004 15.6413C54.9899 15.654 54.8794 15.6667 54.7664 15.6819C54.6684 15.692 54.5729 15.7047 54.4725 15.7174C54.274 15.7427 54.0731 15.7655 53.8722 15.7909C53.8043 15.7985 53.7365 15.8086 53.6662 15.8162C53.518 15.834 53.3698 15.8517 53.2216 15.872C53.1412 15.8821 53.0634 15.8923 52.983 15.9024C52.8474 15.9202 52.7142 15.9354 52.5811 15.9531C52.4982 15.9633 52.4128 15.9734 52.3274 15.9861C52.1692 16.0064 52.0134 16.0266 51.8602 16.0469C51.82 16.052 51.7773 16.0571 51.7397 16.0621C51.5437 16.0875 51.3554 16.1128 51.1745 16.1382C51.1268 16.1458 51.0841 16.1509 51.0364 16.1585C50.9083 16.1762 50.7827 16.194 50.6646 16.2117C50.6094 16.2193 50.5566 16.2269 50.5039 16.2345C50.3933 16.2497 50.2904 16.2649 50.1924 16.2801C50.1522 16.2877 50.1095 16.2928 50.0718 16.3004C49.9412 16.3207 49.8207 16.341 49.7202 16.3587C49.7076 16.3587 49.6624 16.3638 49.6021 16.3689C49.5845 16.3714 49.5695 16.3739 49.5494 16.3739C49.4891 16.3815 49.4163 16.3917 49.3258 16.4018C49.2957 16.4044 49.2706 16.4094 49.2379 16.4145C49.1299 16.4297 49.0094 16.45 48.8712 16.4728C48.8511 16.4753 48.8335 16.4779 48.8134 16.4829C48.6401 16.5134 48.4517 16.5514 48.2433 16.597C48.2407 16.597 48.2382 16.5996 48.2357 16.5996C48.0524 16.6401 47.8539 16.6908 47.6505 16.7441C47.6228 16.7517 47.5952 16.7593 47.5676 16.7669C47.4269 16.8049 47.2863 16.8455 47.1406 16.8936C47.0878 16.9088 47.0351 16.9291 46.9849 16.9469C46.9472 16.9595 46.907 16.9722 46.8668 16.9874C46.6583 17.0584 46.4498 17.137 46.2363 17.2257C46.2288 17.2283 46.2213 17.2308 46.2137 17.2359C46.2012 17.2409 46.1861 17.246 46.1735 17.2536C46.0228 17.317 45.8721 17.388 45.7214 17.4615C45.7164 17.464 45.7139 17.4665 45.7089 17.4665C44.4731 18.0699 43.3001 18.985 42.7927 20.3869C42.7776 20.4427 42.5415 21.3832 41.7176 22.2122L40.0348 20.245L48.6225 12.9694C48.7707 12.8426 48.8134 12.6525 48.7205 12.5435C48.6276 12.4319 48.4291 12.4446 48.2834 12.5688L39.6931 19.8444L39.2008 19.269C39.5826 18.9242 40.2608 18.3158 41.0822 17.5958C41.0947 17.5857 41.1098 17.573 41.1224 17.5603C41.7126 17.0432 42.3732 16.4703 43.0589 15.8872C43.1895 15.7757 43.3176 15.6667 43.4483 15.5577C43.5839 15.4436 43.7195 15.3295 43.8577 15.2154C44.0787 15.0304 44.3023 14.8478 44.5233 14.6653C44.7167 14.5081 44.9076 14.3535 45.0985 14.2014C46.2389 13.2837 47.3013 12.4902 48.0323 12.0669C48.0624 12.0593 56.3312 8.76877 64.3212 8.533C64.6176 8.5254 64.914 8.51019 65.2078 8.51019C65.3008 8.51019 65.3862 8.51779 65.4791 8.52033C66.7174 8.53301 67.8929 8.61666 68.9755 8.79158C68.8976 8.92594 68.7846 9.10339 68.654 9.29352ZM43.7622 14.062C43.5512 14.2344 43.3428 14.4093 43.1318 14.5842L40.7632 12.579C40.615 12.4547 40.4191 12.4421 40.3261 12.5536C40.2332 12.6651 40.2759 12.8553 40.4241 12.9795L42.7249 14.9264C42.3556 15.2382 41.9939 15.5475 41.6423 15.8492C37.8194 15.7731 34.446 15.5957 31.6102 15.3853C31.1606 15.3346 30.8642 15.3016 30.814 15.2965C29.3471 15.0506 28.0711 14.6805 26.9458 14.2445C25.8231 13.8085 24.8586 13.304 24.0372 12.7742C23.4143 12.3711 22.8692 11.9553 22.402 11.5447C22.2463 11.4078 22.0956 11.2734 21.9574 11.1416C21.2567 10.4673 20.7568 9.83603 20.4127 9.33408C20.2746 9.13381 20.1565 8.94876 20.0661 8.79665C21.229 8.61159 22.4925 8.51526 23.8337 8.51526C24.1075 8.51526 24.3813 8.52793 24.6551 8.53554C24.6903 8.53554 24.7254 8.53808 24.7606 8.53808C24.8937 8.54315 25.0243 8.54315 25.1575 8.54822C33.0093 8.88791 40.9817 12.0669 41.0093 12.0719C41.7051 12.4725 42.6922 13.2102 43.7622 14.062ZM20.7744 13.8794L21.2265 14.2267L20.6513 14.1279V16.5134C20.4554 16.5717 20.3474 16.6097 20.3474 16.6097L18.883 17.4665C19.4256 16.2269 20.0585 15.0304 20.7744 13.8794ZM18.564 18.2296L19.8576 18.9065C20.1339 18.7873 20.3876 18.6961 20.6538 18.5896V19.7735C19.2824 20.3565 18.3882 20.8965 18.3882 20.8965L17.3383 21.8725C17.6698 20.6404 18.0767 19.4211 18.564 18.2296ZM18.3983 23.2465C19.187 22.6736 19.9304 22.2071 20.6538 21.7838V23.3884C18.6771 24.4227 17.3609 25.4672 17.3609 25.4672L16.3964 26.6181C16.5521 25.3759 16.7807 24.1287 17.0771 22.889L18.3983 23.2465ZM16.2557 27.8603L17.695 28.0631C18.7223 27.0947 19.7094 26.2936 20.6538 25.6244V26.7804C18.7951 28.0758 17.602 29.3027 17.602 29.3027L16.115 31.6172C16.1025 31.1102 16.1025 30.6007 16.1176 30.0861C16.1402 29.3509 16.1879 28.6056 16.2557 27.8603ZM16.1251 31.8124L18.2626 31.8327C19.0789 30.839 19.8752 29.9872 20.6538 29.2495V30.4967C18.6645 32.4386 17.4639 34.3526 17.4639 34.3526L16.6752 36.4389C16.3612 34.9432 16.1728 33.3994 16.1251 31.8124ZM16.8133 37.0575L18.6344 36.6798C19.3151 35.3666 20.0083 34.2385 20.7091 33.26C20.7392 34.0408 20.787 34.7937 20.8422 35.5415C19.5838 37.4529 18.9182 39.0576 18.9182 39.0576L18.4008 41.7245C17.7301 40.244 17.1976 38.6824 16.8133 37.0575ZM18.5012 41.9324L20.4629 41.1567C20.699 40.4164 20.9502 39.7345 21.2089 39.0855C21.3245 39.9221 21.4601 40.7358 21.6108 41.5268C21.1838 42.8171 21.003 43.7095 21.003 43.7095V46.1431C20.041 44.83 19.1945 43.4255 18.5012 41.9324ZM21.2717 46.5259L22.598 45.6741C22.9747 46.9848 23.3942 48.2193 23.8538 49.388C22.927 48.4957 22.0504 47.5526 21.2717 46.5259ZM21.8344 12.3331C22.0805 12.546 22.3468 12.7589 22.6306 12.9744L20.9477 13.6031C21.2265 13.1671 21.5254 12.7463 21.8344 12.3331ZM20.7744 11.4306C20.7744 11.4306 20.7518 11.3672 20.7216 11.2582C20.905 11.461 21.1085 11.6663 21.327 11.8767C21.0507 12.1911 20.7694 12.4978 20.5081 12.8325L20.7744 11.4306ZM23.4369 14.5614C23.9292 14.4726 24.3964 14.4067 24.8485 14.3586C25.1926 14.536 25.5568 14.7033 25.9386 14.8681C24.9314 14.7566 24.0975 14.6501 23.4369 14.5614ZM38.5503 19.9788L40.4894 22.377C40.4894 22.377 40.5522 23.0716 39.8012 22.5671L38.1735 20.7368C38.1735 20.7342 37.8595 19.7887 38.5503 19.9788ZM36.7368 21.3021C36.7368 21.3021 36.9252 21.0511 37.2969 21.1145L39.2385 23.1983C39.2385 23.1983 39.7384 23.6369 39.2385 24.0805C38.7362 24.5216 38.2363 24.0805 38.2363 24.0805L36.5484 22.1843C36.5484 22.1868 36.36 21.6824 36.7368 21.3021ZM34.6721 23.7028L35.1091 23.2617C35.609 22.7572 35.9858 23.0716 35.9858 23.0716L37.6109 24.9044L37.4878 25.3455L36.6715 26.0401C36.36 26.4178 35.923 26.1669 35.923 26.1669L34.6068 24.5875C34.2325 24.2073 34.6721 23.7028 34.6721 23.7028ZM34.1095 28.2482L32.2306 31.2801C31.1682 32.6059 30.1685 31.4702 30.1685 31.4702C29.1663 30.5221 29.6661 30.0785 29.6661 30.0785C31.1054 29.5106 32.7933 27.1124 32.7933 27.1124L34.1095 28.2482ZM34.0467 25.7232L35.1694 26.9857C35.6065 27.2367 34.9208 27.6803 34.9208 27.6803C34.7349 27.8704 34.4837 27.6803 34.4837 27.6803L34.0467 27.3026C33.4212 26.6713 33.3584 26.2302 33.3584 26.2302C33.2956 25.4064 34.0467 25.7232 34.0467 25.7232ZM47.0703 17.9229C47.3918 17.8088 47.7057 17.7175 48.0021 17.6389C48.8084 18.3462 49.469 18.9394 49.8458 19.2791L49.3535 19.8546L47.0703 17.9229ZM47.3315 22.2249C46.5076 21.3959 46.2715 20.4554 46.2564 20.3996C46.0329 19.7836 45.6712 19.269 45.2417 18.8279C45.641 18.5541 46.0731 18.3259 46.5152 18.1409L49.0144 20.2576L47.3315 22.2249ZM49.2505 22.5848C48.4995 23.0893 48.5623 22.3947 48.5623 22.3947L50.5014 19.9965C51.1921 19.8089 50.8781 20.7545 50.8781 20.7545L49.2505 22.5848ZM50.8153 24.0983C50.8153 24.0983 50.313 24.5394 49.8131 24.0983C49.3158 23.6546 49.8131 23.2161 49.8131 23.2161L51.7547 21.1322C52.1265 21.0689 52.3149 21.3198 52.3149 21.3198C52.6891 21.7001 52.5032 22.2046 52.5032 22.2046L50.8153 24.0983ZM53.1287 26.1821C53.1287 26.1821 52.6916 26.4356 52.3802 26.0553L51.5638 25.3607L51.4408 24.9196L53.0659 23.0868C53.0659 23.0868 53.4426 22.7724 53.9425 23.2769L54.3795 23.718C54.3795 23.718 54.8166 24.2225 54.4448 24.6027L53.1287 26.1821ZM56.2584 27.1277C56.2584 27.1277 57.9488 29.5258 59.3855 30.0937C59.3855 30.0937 59.8854 30.5348 58.8832 31.4854C58.8832 31.4854 57.881 32.6211 56.8185 31.2953L54.9397 28.2659L56.2584 27.1277ZM54.5679 27.698C54.5679 27.698 54.3167 27.8882 54.1309 27.698C54.1309 27.698 53.4452 27.2544 53.8822 27.0034L55.0075 25.741C55.0075 25.741 55.7585 25.4266 55.6957 26.248C55.6957 26.248 55.6329 26.6891 55.0075 27.3203L54.5679 27.698ZM63.1331 14.8428C63.4923 14.6881 63.8439 14.5284 64.1705 14.3611C64.5925 14.4067 65.0295 14.4701 65.4841 14.5512C64.8587 14.6349 64.075 14.7338 63.1331 14.8428ZM22.3443 30.7629V16.1356C24.6451 16.4703 30.8642 17.2536 39.7409 17.5173C38.8969 18.2676 38.3117 18.8 38.2363 18.8684L37.8972 19.1803L37.8997 19.1828C37.8671 19.198 37.8344 19.198 37.8018 19.2208L32.4843 24.9044C32.4843 24.9044 31.7182 25.6624 32.0624 26.1643C31.9996 28.058 28.998 29.2571 28.998 29.2571C27.4306 29.2571 28.1842 30.5196 28.1842 30.5196C30.1207 34.1802 34.3129 34.3703 34.3129 34.3703C35.5462 34.2461 34.7374 32.8544 34.7374 32.8544C34.5716 31.9722 35.2699 29.683 35.4482 29.1278C35.609 29.2596 35.9004 29.3408 36.3625 28.8768L41.6147 23.6343C41.6147 23.6343 41.8759 23.4924 41.9136 23.2946L41.9713 23.249C43.3327 22.1513 43.6819 20.7114 43.6793 20.7038C43.8577 20.2095 44.1541 19.7937 44.5133 19.4287C44.8825 19.7963 45.1914 20.2171 45.3748 20.7216C45.3723 20.7292 45.7214 22.1665 47.0828 23.2668L47.1406 23.3124C47.1808 23.5101 47.4395 23.6521 47.4395 23.6521L52.6916 28.8946C53.1538 29.3585 53.4477 29.2774 53.6059 29.1456C53.7843 29.7007 54.4825 31.9874 54.3167 32.8721C54.3167 32.8721 53.5054 34.2613 54.7412 34.3881C54.7412 34.3881 58.9334 34.1979 60.87 30.5373C60.87 30.5373 61.6235 29.2749 60.0562 29.2749C60.0562 29.2749 57.0571 28.0758 56.9918 26.1821C57.3359 25.6801 56.5698 24.9222 56.5698 24.9222L51.2524 19.2386C51.2197 19.2157 51.1871 19.2157 51.1544 19.2005L51.1569 19.198L50.8178 18.8862C50.74 18.8152 50.1472 18.2752 49.2882 17.5096C58.0643 17.2409 64.2031 16.4652 66.4888 16.1331V30.7604C66.4888 58.8108 49.4137 65.5794 45.2517 66.8114H43.5889C39.4194 65.5819 22.3443 58.8133 22.3443 30.7629ZM36.7569 65.407C37.6259 65.9571 38.4548 66.4211 39.226 66.814H34.9735C35.614 66.4388 36.2143 65.9724 36.7569 65.407ZM34.9509 69.6076C36.3223 69.6076 37.4778 70.4188 37.641 71.8765H36.3148C36.2269 71.2478 35.6341 70.7712 34.9509 70.7712C33.7201 70.7712 33.2554 71.8334 33.2554 72.9336C33.2554 73.9831 33.7176 75.0428 34.9509 75.0428C35.7898 75.0428 36.2646 74.4572 36.3675 73.6308H37.6938C37.5531 75.2025 36.4806 76.2064 34.9509 76.2064C33.0193 76.2064 31.884 74.7487 31.884 72.9336C31.884 71.0653 33.0193 69.6076 34.9509 69.6076ZM39.9142 69.7597H41.2881V73.6764C41.2881 74.3634 41.464 75.0453 42.5742 75.0453C43.5512 75.0453 43.8702 74.6144 43.8702 73.6764V69.7597H45.2417V73.6764C45.2417 75.3774 44.2445 76.2089 42.5742 76.2089C40.8963 76.2089 39.9167 75.3876 39.9167 73.6764V69.7597H39.9142ZM47.7283 69.7597H51.0916C52.2094 69.7597 52.9202 70.5456 52.9202 71.4962C52.9202 72.239 52.6238 72.7942 51.9306 73.0756V73.0933C52.6037 73.2682 52.7971 73.9299 52.8398 74.5662C52.8675 74.9617 52.8574 75.7044 53.101 76.0543H51.7296C51.5638 75.6588 51.5814 75.0504 51.5111 74.5459C51.4156 73.8843 51.1619 73.5927 50.4712 73.5927H49.0998V76.0543H47.7258V69.7597H47.7283ZM54.0254 66.814H49.7076C50.4938 66.416 51.3353 65.9495 52.2219 65.3867C52.7695 65.9571 53.3748 66.4337 54.0254 66.814ZM64.8713 49.6846C65.3811 48.4069 65.8458 47.0405 66.2603 45.5829L67.7272 46.5234C66.8656 47.6566 65.9086 48.7111 64.8713 49.6846ZM68.0512 13.6031L66.3884 12.9795C66.6697 12.7691 66.9334 12.5612 67.1771 12.3508C67.481 12.7589 67.7774 13.1747 68.0512 13.6031ZM68.2973 11.3571L68.6038 12.977C68.3124 12.5992 67.9959 12.2519 67.6895 11.8945C67.9281 11.6689 68.1416 11.4458 68.3375 11.2303C68.3149 11.3114 68.2973 11.3571 68.2973 11.3571ZM67.9959 43.7095C67.9959 43.7095 67.7849 42.6574 67.2725 41.1795C67.4157 40.3911 67.5438 39.5799 67.6543 38.7458C67.9608 39.4886 68.2571 40.2846 68.5334 41.1567L70.4951 41.9324C69.7969 43.4331 68.9604 44.8502 67.9959 46.171V43.7095ZM70.5956 41.7245L70.0782 39.0576C70.0782 39.0576 69.3623 37.3186 68.0009 35.3058C68.0537 34.563 68.0964 33.8075 68.124 33.0293C68.8801 34.0585 69.6286 35.2627 70.3645 36.6798L72.1881 37.0575C71.8013 38.6824 71.2688 40.2415 70.5956 41.7245ZM72.3237 36.4364L71.5325 34.35C71.5325 34.35 70.2666 32.3321 68.1768 30.3345V29.0847C69.0082 29.8604 69.8597 30.7655 70.7363 31.8302L72.8738 31.8099C72.8261 33.3994 72.6377 34.9432 72.3237 36.4364ZM29.9198 76.0568H25.1801V69.7597H29.8444V70.9233H26.5515V72.2745H29.5757V73.3494H26.5515V74.8932H29.9173V76.0568H29.9198ZM19.3427 71.3999C19.3427 71.8841 19.6391 71.95 21.2039 72.3556C21.6585 72.4697 23.0576 72.7587 23.0576 74.191C23.0576 75.3445 22.1584 76.2114 20.4604 76.2114C19.0789 76.2114 17.7854 75.5219 17.803 73.9705H19.1317C19.1317 74.8096 19.7772 75.134 20.5132 75.134C20.9929 75.134 21.7264 74.9921 21.7264 74.3482C21.7264 73.6688 20.792 73.5547 19.8752 73.3088C18.9458 73.0604 18.0139 72.7004 18.0139 71.5165C18.0139 70.2287 19.2196 69.6102 20.3474 69.6102C21.6485 69.6102 22.8466 70.1831 22.8466 71.6407H21.5179C21.4727 70.8802 20.9402 70.6876 20.2871 70.6876C19.8501 70.685 19.3427 70.8701 19.3427 71.3999ZM55.3491 69.7597H56.723V76.0568H55.3491V69.7597ZM58.75 69.7597H63.8615V70.9233H61.9902V76.0568H60.6188V70.9233H58.75V69.7597ZM65.2053 69.7597H66.7551L68.2144 72.2492L69.6662 69.7597H71.1959L68.8775 73.6434V76.0593H67.5061V73.6079L65.2053 69.7597ZM87.8767 23.1578C86.3897 36.5936 75.893 36.1068 75.893 36.1068L73.2506 37.5442C73.8534 35.2855 74.1824 32.9101 74.1824 30.4587C74.1824 29.7388 74.1523 29.0391 74.1096 28.3496L77.0007 27.9515C88.595 21.1601 79.319 8.29978 79.319 8.29978C84.9278 20.5796 75.692 25.6345 75.692 25.6345L74.1096 28.3394C73.994 26.4153 73.7278 24.5977 73.3159 22.8966L75.4735 22.2451C84.9354 14.4929 74.8054 4.2665 74.8054 4.2665C81.5595 14.4929 73.9714 20.3514 73.9714 20.3514L73.1802 22.377C72.7834 20.8585 72.2785 19.4312 71.6757 18.0952L73.5846 16.8226C79.741 7.66095 68.3777 1.50836 68.3777 1.50836C76.8324 8.54568 71.8038 15.5855 71.8038 15.5855L71.6053 17.9406C70.8518 16.2877 69.9476 14.7769 68.9353 13.3978L70.141 11.9908C73.2682 2.54266 61.9375 0 61.9375 0C66.848 2.19029 68.2948 5.35911 68.5962 7.7953C67.6593 7.66855 66.6797 7.58743 65.6424 7.57222L65.66 7.47082C63.4923 -2.25113 52.4957 1.49315 52.4957 1.49315C61.1337 0.372653 63.2964 6.20836 63.6857 7.5925C63.4622 7.60264 63.2411 7.62292 63.0176 7.63813C61.2292 6.363 59.3303 5.30588 57.3711 4.50226C59.3604 5.34897 61.1161 6.42384 62.681 7.66094C55.0602 8.24654 47.7082 11.1745 47.5726 11.2328C46.7965 11.6815 45.6913 12.508 44.5133 13.451C43.3453 12.5156 42.2501 11.6942 41.479 11.2506C41.3434 11.1923 33.9487 8.24654 26.3028 7.67362C27.8702 6.43144 29.6309 5.35151 31.6253 4.50226C29.6586 5.30841 27.7546 6.36807 25.9637 7.6508C25.7452 7.63559 25.5267 7.61785 25.3082 7.60771C25.6824 6.25906 27.825 0.365048 36.5057 1.49315C36.5057 1.49315 25.5066 -2.25113 23.3364 7.47082L23.359 7.58996C22.3518 7.60771 21.3973 7.6863 20.4855 7.80798C20.802 5.38193 22.2639 2.24606 27.1367 0.0709816C27.1367 0.0709816 15.8061 2.61618 18.9333 12.0669L20.0736 13.3927C19.0563 14.7743 18.1496 16.2903 17.396 17.9406L17.1976 15.5855C17.1976 15.5855 12.169 8.54568 20.6262 1.50836C20.6262 1.50836 9.25787 7.66095 15.4168 16.8226L17.3257 18.0952C16.7229 19.4338 16.218 20.861 15.8212 22.377L15.03 20.3514C15.03 20.3514 7.44185 14.4929 14.196 4.2665C14.196 4.2665 4.06351 14.4929 13.5279 22.2451L15.6855 22.8966C15.2736 24.5977 15.0073 26.4153 14.8918 28.3394L13.3094 25.6345C13.3094 25.6345 4.07355 20.5796 9.68236 8.29978C9.68236 8.29978 0.403839 21.1601 12.0007 27.9515L14.8918 28.3496C14.8491 29.0416 14.8215 29.7388 14.8215 30.4587C14.8215 32.9127 15.1505 35.2855 15.7533 37.5442L13.1109 36.1068C13.1109 36.1068 2.61421 36.5936 1.12723 23.1578C1.12723 23.1578 -0.231642 39.0095 13.1737 38.7737L15.7785 37.6355C16.2482 39.3771 16.8862 41.0502 17.6749 42.6346L14.7486 41.8817C14.7486 41.8817 4.68392 44.939 0.00195312 32.2713C0.00195312 32.2713 2.5062 47.976 15.4544 44.4522L17.71 42.7056C18.4761 44.2317 19.3778 45.6767 20.4052 47.0203L17.7929 47.109C17.7929 47.109 8.96902 52.8686 0.979037 42.0186C0.979037 42.0186 7.71564 56.3974 19.1794 49.3804L20.6589 47.3498C21.7264 48.7086 22.922 49.9609 24.2231 51.089L21.5179 51.7203C21.5179 51.7203 13.9624 59.0897 4.04592 50.0015C4.04592 50.0015 13.4099 62.7985 23.3138 53.6799L24.4366 51.2741C24.5446 51.3653 24.6651 51.4439 24.7732 51.5352C25.3684 52.8103 26.0064 53.9967 26.6821 55.097L26.0818 55.3961C26.0818 55.3961 20.4052 64.322 8.68519 57.7689C8.68519 57.7689 20.483 67.8508 28.0561 57.1808C28.7895 58.1999 29.5531 59.1277 30.3267 59.9795C30.3116 59.9871 30.2991 59.9947 30.2865 60.0048L30.3016 60.0327C28.6589 62.5145 24.7732 66.1751 16.7304 64.1192C16.7304 64.1192 27.0488 69.0778 32.085 61.7692C33.0796 62.7072 34.0768 63.5235 35.0514 64.2358C34.3104 65.1839 33.2806 66.0966 31.8689 66.8089H14.3066V78.9949H74.8355V66.8089H57.1048C55.6882 66.0915 54.6609 65.1662 53.9199 64.2105C54.7689 63.5869 55.6329 62.8897 56.502 62.0937C56.6276 61.9771 56.7582 61.8453 56.8863 61.7236C61.9074 69.0955 72.271 64.1167 72.271 64.1167C64.2282 66.1726 60.3425 62.512 58.6998 60.0302L58.7149 60.0023C58.6948 59.9871 58.6747 59.9769 58.6571 59.9643C58.6496 59.949 58.6446 59.9389 58.6345 59.9262C59.3906 59.0821 60.1416 58.1339 60.88 57.092C68.4531 67.9015 80.3162 57.7638 80.3162 57.7638C68.5962 64.317 62.9171 55.391 62.9171 55.391L62.2188 55.0437C62.8392 54.0196 63.432 52.9067 63.9946 51.7101C64.183 51.5605 64.384 51.4262 64.5648 51.2715L65.6901 53.6773C75.5941 62.7959 84.958 49.9989 84.958 49.9989C75.044 59.0871 67.486 51.7177 67.486 51.7177L64.7808 51.0865C66.0844 49.9584 67.2775 48.7061 68.3451 47.3473L69.827 49.3779C81.2883 56.3949 88.0274 42.0161 88.0274 42.0161C80.0374 52.8661 71.211 47.1064 71.211 47.1064L68.6012 47.0177C69.6261 45.6741 70.5278 44.2317 71.2939 42.703L73.5495 44.4497C86.4977 47.9734 89.002 32.2688 89.002 32.2688C84.32 44.9339 74.2553 41.8792 74.2553 41.8792L71.3291 42.6321C72.1152 41.0477 72.7557 39.3745 73.228 37.6355L75.8327 38.7712C89.2355 39.0095 87.8767 23.1578 87.8767 23.1578Z" fill="#FFFEFC"/>
</svg>
